# xmcd
#
# Track frame offsets:
#	150
#	19906
#	38406
#	57010
#	72171
#	88882
#	108323
#	128751
#	148310
#	164696
#	177844
#	190035
#	209729
#
# Disc length: 3012 seconds
#
# Revision: 1
# Processed by: cddbd v1.5.1PL0 Copyright (c) Steve Scherf et al.
# Submitted via: audiograbber 1.81.02
#
DISCID=bb0bc20d
DTITLE=Abra Moore - Everything Changed and Bonus DVD
DYEAR=2004
DGENRE=Crossover
TTITLE0=I Do
TTITLE1=No Fear
TTITLE2=Big Sky
TTITLE3=If You Want Me To
TTITLE4=Taking Chances
TTITLE5=Melancholy Love
TTITLE6=Family Affair
TTITLE7=Pull Away
TTITLE8=The End
TTITLE9=Everything Changed
TTITLE10=Paint On Your Wings
TTITLE11=I Win
TTITLE12=Shining Star
EXTD=
EXTT0=
EXTT1=
EXTT2=
EXTT3=
EXTT4=
EXTT5=
EXTT6=
EXTT7=
EXTT8=
EXTT9=
EXTT10=
EXTT11=
EXTT12=
PLAYORDER=
